<svg width="20" height="20" viewBox="0 0 20 20" fill="none" xmlns="http://www.w3.org/2000/svg">
<path d="M10.4972 12.8216L15.7262 7.58333C15.813 7.4973 15.8818 7.39493 15.9288 7.28215C15.9758 7.16937 16 7.04841 16 6.92623C16 6.80405 15.9758 6.68309 15.9288 6.57031C15.8818 6.45753 15.813 6.35516 15.7262 6.26913C15.5528 6.09675 15.3183 6 15.0738 6C14.8293 6 14.5947 6.09675 14.4213 6.26913L9.79381 10.8503L5.2126 6.26913C5.0392 6.09675 4.80463 6 4.56012 6C4.31562 6 4.08105 6.09675 3.90765 6.26913C3.8202 6.35484 3.75063 6.45706 3.70297 6.56985C3.65531 6.68265 3.63051 6.80378 3.63 6.92623C3.63051 7.04868 3.65531 7.16981 3.70297 7.28261C3.75063 7.3954 3.8202 7.49762 3.90765 7.58333L9.1367 12.8216C9.22337 12.9156 9.32855 12.9906 9.44563 13.0418C9.5627 13.0931 9.68913 13.1196 9.81694 13.1196C9.94476 13.1196 10.0712 13.0931 10.1883 13.0418C10.3053 12.9906 10.4105 12.9156 10.4972 12.8216V12.8216Z" fill="#737A8F"/>
</svg>
