<svg width="8" height="13" viewBox="0 0 8 13" fill="none" xmlns="http://www.w3.org/2000/svg">
<path d="M7.07429 5.86485L1.81118 0.660761C1.72473 0.574425 1.62204 0.506061 1.50904 0.459612C1.39604 0.413162 1.27496 0.389547 1.15278 0.390128C1.03061 0.390708 0.909756 0.415474 0.7972 0.462996C0.684644 0.510518 0.582612 0.579855 0.496988 0.667009C0.32544 0.84123 0.229804 1.07626 0.230966 1.32076C0.232129 1.56526 0.329996 1.79936 0.503193 1.97194L5.10635 6.57759L0.546975 11.1805C0.375427 11.3548 0.279791 11.5898 0.280953 11.8343C0.282116 12.0788 0.379983 12.3129 0.55318 12.4855C0.639309 12.5725 0.741855 12.6416 0.854876 12.6887C0.967896 12.7358 1.08914 12.7601 1.2116 12.76C1.33404 12.7589 1.45505 12.7335 1.56762 12.6853C1.68019 12.6371 1.78207 12.5671 1.86737 12.4792L7.08076 7.22532C7.17429 7.1382 7.24876 7.03267 7.29948 6.91535C7.35021 6.79803 7.37608 6.67148 7.37547 6.54367C7.37486 6.41586 7.34779 6.28956 7.29595 6.17273C7.24412 6.0559 7.16864 5.95107 7.07429 5.86485V5.86485Z" fill="#737A8F"/>
</svg>
